<svg xmlns="http://www.w3.org/2000/svg" width="83.117" height="50.535" viewBox="0 0 83.117 50.535">
  <g id="Group_6" data-name="Group 6" transform="translate(1149.227 -4548.814)">
    <path id="Path_20" data-name="Path 20" d="M55.111,407.3s1.066,5.542,6.737,3.778c3.457-.867,15.758-4.8,18.819-3.693.938.255,2.732.793,3.3,2.353-.065-.585-.206-4.045-5.669-4.912-2.395-.187-19.771-2.122-22.578-5.576C55.424,400.772,54.792,405.3,55.111,407.3Z" transform="translate(-1198.945 4171.206)" fill="#fff"/>
    <path id="Path_21" data-name="Path 21" d="M55.111,407.3s1.066,5.542,6.737,3.778c3.457-.867,15.758-4.8,18.819-3.693.938.255,2.732.793,3.3,2.353-.065-.585-.206-4.045-5.669-4.912-2.395-.187-19.771-2.122-22.578-5.576C55.424,400.772,54.792,405.3,55.111,407.3Z" transform="translate(-1198.945 4171.206)" fill="#fff"/>
    <path id="Path_22" data-name="Path 22" d="M72.972,348.048c-.925-6-8.122-9.231-8.271-9.3a61.687,61.687,0,0,0-7.119-3.079c-6.3-2.431-18.457-6.875-20.809-10.859,0,0,.531,16.664,11.161,18.906,2.734.378,16.112,1.37,22.393,6.93a5.639,5.639,0,0,1,1.327,5.445A11.44,11.44,0,0,0,72.972,348.048Z" transform="translate(-1186 4224)" fill="#fff"/>
    <path id="Path_23" data-name="Path 23" d="M72.972,348.048c-.925-6-8.122-9.231-8.271-9.3a61.687,61.687,0,0,0-7.119-3.079c-6.3-2.431-18.457-6.875-20.809-10.859,0,0,.531,16.664,11.161,18.906,2.734.378,16.112,1.37,22.393,6.93a5.639,5.639,0,0,1,1.327,5.445A11.44,11.44,0,0,0,72.972,348.048Z" transform="translate(-1186 4224)" fill="#fff"/>
    <path id="Path_24" data-name="Path 24" d="M169.11,370.975q-.062-.061-.13-.117a.038.038,0,0,1-.019-.016h0a2.057,2.057,0,0,0-1.252-.429,2.032,2.032,0,0,0-1.379.535h0a1.253,1.253,0,0,0-.288.32,1.8,1.8,0,0,0-.1.152c-.01.021-.025.04-.038.064,0,0-.007.005-.007.008a13.969,13.969,0,0,0-1.355,4.3,27,27,0,0,1-4.155,11.826c1.024-.713,10.181-7.06,9.383-14.2,0,0-.029-.387-.024-.673.008-.069.013-.142.017-.213a.026.026,0,0,1,0-.018.749.749,0,0,1,.928-.675A6.456,6.456,0,0,1,169.11,370.975Z" transform="translate(-1273.675 4191.656)" fill="#fff"/>
    <path id="Path_25" data-name="Path 25" d="M169.11,370.975q-.062-.061-.13-.117a.038.038,0,0,1-.019-.016h0a2.057,2.057,0,0,0-1.252-.429,2.032,2.032,0,0,0-1.379.535h0a1.253,1.253,0,0,0-.288.32,1.8,1.8,0,0,0-.1.152c-.01.021-.025.04-.038.064,0,0-.007.005-.007.008a13.969,13.969,0,0,0-1.355,4.3,27,27,0,0,1-4.155,11.826c1.024-.713,10.181-7.06,9.383-14.2,0,0-.029-.387-.024-.673.008-.069.013-.142.017-.213a.026.026,0,0,1,0-.018.749.749,0,0,1,.928-.675A6.456,6.456,0,0,1,169.11,370.975Z" transform="translate(-1273.675 4191.656)" fill="#fff"/>
    <text id="listacc" transform="translate(-1123.11 4595.349)" fill="#fff" font-size="19" font-family="TrebuchetMS-Bold, Trebuchet MS" font-weight="700"><tspan x="0" y="0">listacc</tspan></text>
    <path id="Path_26" data-name="Path 26" d="M169.519,390.338l-2.875-.464a24.023,24.023,0,0,1-6.262,11.553C161.252,400.819,168.022,396.127,169.519,390.338Z" transform="translate(-1273.675 4177.854)" fill="#fff"/>
    <path id="Path_27" data-name="Path 27" d="M169.11,370.975q-.062-.061-.13-.117a.038.038,0,0,1-.019-.016h0a2.057,2.057,0,0,0-1.252-.429,2.032,2.032,0,0,0-1.379.535h0a1.253,1.253,0,0,0-.288.32,1.8,1.8,0,0,0-.1.152c-.01.021-.025.04-.038.064,0,0-.007.005-.007.008a13.969,13.969,0,0,0-1.355,4.3,27,27,0,0,1-4.155,11.826c1.024-.713,10.181-7.06,9.383-14.2,0,0-.029-.387-.024-.673.008-.069.013-.142.017-.213a.026.026,0,0,1,0-.018.749.749,0,0,1,.928-.675A6.456,6.456,0,0,1,169.11,370.975Z" transform="translate(-1273.675 4191.656)" fill="#fff"/>
    <path id="Path_28" data-name="Path 28" d="M75.667,368.659c-14.806-4.327-15.109-6.073-15.109-6.073L56.9,367.618a10.571,10.571,0,0,0,5.31,2.893c2.734.378,16.112,1.37,22.393,6.93a5.639,5.639,0,0,1,1.327,5.445S90.47,372.986,75.667,368.659Z" transform="translate(-1200.275 4197.208)" fill="#fff"/>
    <path id="Path_29" data-name="Path 29" d="M89.7,422.068a49.344,49.344,0,0,1-9.34-.077c-.313-.113-.284,2.6-.193,5.075,4.03-1.077,15.369-4.609,18.292-3.555a4.789,4.789,0,0,1,3.16,2.043C101.147,424.322,99.056,421.5,89.7,422.068Z" transform="translate(-1216.733 4155.076)" fill="#fff"/>
  </g>
</svg>
